<svg width="500" height="500" xmlns="http://www.w3.org/2000/svg">

 <g>
  <title>Layer 1</title>
  <ellipse id="svg_1" fill=" rgb(255, 255, 255)" ry="249.648" rx="249.297" cy="250.438" cx="250.334"/>
  <path id="svg_2" fill=" rgb(53, 53, 53)" d="m309.239,123.424c13.016,-13.314 34.155,-13.314 47.171,0l20.513,21.002c13.016,13.31 13.016,34.913 0,48.229l-25.199,25.779l-67.684,-69.231l25.199,-25.779zm30.718,107.047l-121.415,124.156c-5.414,5.539 -12.131,9.64 -19.472,11.824l-62.649,18.854c-4.384,1.332 -9.127,0.107 -12.36,-3.675c-3.233,-2.822 -4.442,-7.669 -3.152,-12.196l18.428,-64.075c2.166,-7.511 6.138,-14.381 11.558,-19.921l121.378,-124.187l67.684,69.22z"/>
 </g>
</svg>